<svg id="svg" version="1.1" xmlns="http://www.w3.org/2000/svg" xmlns:xlink="http://www.w3.org/1999/xlink" width="400" height="369.0821256038647" viewBox="0, 0, 400,369.0821256038647"><g id="svgg"><path id="path0" d="M30.286 276.876 C 22.437 278.409,17.831 283.449,16.351 292.123 C 13.150 310.879,32.259 321.460,48.569 309.963 L 50.046 308.922 50.147 302.199 L 50.248 295.476 42.298 295.476 L 34.349 295.476 34.349 297.497 L 34.349 299.519 39.797 299.621 L 45.245 299.723 45.353 302.822 C 45.503 307.134,43.519 308.827,37.005 309.944 C 25.665 311.889,17.883 301.580,21.823 289.831 C 25.366 279.264,39.897 277.123,44.202 286.534 C 45.176 288.663,45.450 288.748,48.476 287.859 C 50.667 287.216,46.879 280.566,43.253 278.691 C 40.194 277.109,33.728 276.204,30.286 276.876 M57.473 277.593 C 56.503 280.119,57.502 304.624,58.687 307.389 C 61.358 313.621,69.194 316.343,77.433 313.901 C 85.067 311.639,86.427 307.877,86.427 289.028 L 86.427 277.008 84.033 277.008 C 81.024 277.008,81.285 275.683,81.167 291.597 C 81.039 308.813,80.403 310.072,71.837 310.060 C 63.131 310.047,62.050 307.719,62.050 288.989 L 62.050 277.008 59.873 277.008 C 58.229 277.008,57.642 277.151,57.473 277.593 M91.967 279.215 L 91.967 281.422 97.784 281.523 L 103.601 281.625 103.697 297.784 L 103.794 313.943 106.187 313.943 L 108.579 313.943 108.676 297.784 L 108.772 281.625 114.774 281.524 L 120.776 281.422 120.776 279.215 L 120.776 277.008 106.371 277.008 L 91.967 277.008 91.967 279.215 M149.684 278.933 C 149.252 280.007,148.470 282.008,147.948 283.380 C 146.006 288.482,145.058 290.954,143.665 294.552 C 142.878 296.584,141.802 299.409,141.273 300.831 C 140.745 302.253,140.161 303.749,139.977 304.155 C 139.479 305.251,136.288 313.569,136.288 313.770 C 136.288 313.865,137.435 313.943,138.836 313.943 L 141.384 313.943 142.410 311.080 C 142.975 309.506,143.872 307.054,144.405 305.633 L 145.373 303.047 153.035 302.947 L 160.696 302.847 161.293 304.240 C 161.621 305.006,162.573 307.461,163.408 309.695 L 164.927 313.758 167.597 313.867 C 169.308 313.936,170.268 313.834,170.268 313.582 C 170.268 312.996,167.605 306.293,165.621 301.883 C 165.333 301.243,165.097 300.603,165.097 300.462 C 165.097 300.320,164.858 299.680,164.566 299.040 C 163.824 297.413,162.255 293.602,156.791 280.148 L 155.591 277.193 153.031 277.086 L 150.471 276.979 149.684 278.933 M175.439 295.458 L 175.439 313.943 177.843 313.943 L 180.247 313.943 180.151 295.568 L 180.055 277.193 177.747 277.083 L 175.439 276.973 175.439 295.458 M203.878 295.476 L 203.878 313.943 206.279 313.943 L 208.680 313.943 208.680 295.476 L 208.680 277.008 206.279 277.008 L 203.878 277.008 203.878 295.476 M245.614 279.594 L 245.614 282.179 247.830 282.179 L 250.046 282.179 250.046 279.594 L 250.046 277.008 247.830 277.008 L 245.614 277.008 245.614 279.594 M271.271 277.851 C 271.149 278.334,271.103 279.464,271.167 280.362 L 271.283 281.994 273.609 282.105 L 275.935 282.215 275.825 279.704 L 275.716 277.193 273.603 277.083 C 271.645 276.980,271.475 277.036,271.271 277.851 M325.762 279.594 L 325.762 282.179 327.978 282.179 L 330.194 282.179 330.194 279.594 L 330.194 277.008 327.978 277.008 L 325.762 277.008 325.762 279.594 M260.244 279.237 C 257.884 280.589,257.815 280.732,257.808 284.282 L 257.802 287.307 256.233 287.421 C 253.618 287.610,253.666 291.043,256.283 291.043 L 257.705 291.043 257.872 300.939 C 258.084 313.503,258.482 314.322,264.366 314.306 C 267.271 314.299,267.509 314.090,267.139 311.880 L 266.835 310.069 265.469 310.186 C 264.403 310.278,263.897 310.098,263.168 309.370 L 262.235 308.436 262.235 299.757 L 262.235 291.079 264.543 290.969 L 266.851 290.859 266.851 289.197 L 266.851 287.535 264.554 287.425 L 262.256 287.315 262.153 282.758 L 262.050 278.202 260.244 279.237 M314.210 279.468 L 312.096 280.761 312.096 284.056 L 312.096 287.350 310.414 287.350 L 308.731 287.350 308.844 289.104 L 308.957 290.859 310.504 290.971 L 312.052 291.084 312.166 300.759 C 312.267 309.241,312.364 310.601,312.956 311.790 C 314.388 314.669,321.699 315.530,321.699 312.819 C 321.699 310.788,321.146 309.981,319.883 310.166 C 319.195 310.267,318.377 310.094,317.820 309.729 L 316.898 309.124 316.898 300.102 L 316.898 291.080 319.021 290.969 L 321.145 290.859 321.145 289.197 L 321.145 287.535 319.021 287.424 L 316.898 287.313 316.898 282.921 C 316.898 277.760,316.931 277.804,314.210 279.468 M155.013 287.442 C 156.068 290.337,157.439 294.035,158.058 295.660 C 158.678 297.285,159.185 298.657,159.186 298.707 C 159.187 298.758,156.434 298.800,153.068 298.800 L 146.949 298.800 147.201 297.969 C 147.437 297.188,148.871 293.309,150.306 289.566 C 150.657 288.652,151.339 286.616,151.823 285.042 C 152.941 281.404,152.764 281.271,155.013 287.442 M225.604 287.481 C 224.858 287.714,223.637 288.444,222.891 289.104 C 221.320 290.495,220.868 290.387,220.868 288.621 L 220.868 287.350 219.021 287.350 L 217.175 287.350 217.175 300.665 L 217.175 313.980 219.298 313.869 L 221.422 313.758 221.607 304.524 C 221.835 293.123,222.487 291.566,227.335 290.839 C 233.076 289.978,234.124 292.211,234.148 305.355 L 234.164 313.943 236.380 313.943 L 238.596 313.943 238.596 303.762 C 238.596 292.571,238.316 290.955,236.019 288.936 C 233.977 287.141,228.950 286.439,225.604 287.481 M288.822 287.485 C 285.256 288.517,280.815 293.527,282.236 294.914 C 283.061 295.719,286.448 295.191,286.923 294.183 C 289.598 288.509,299.312 289.305,299.628 295.224 C 299.745 297.419,299.019 297.771,292.705 298.575 C 283.376 299.764,279.738 303.569,281.860 309.917 C 283.570 315.034,292.125 316.253,298.186 312.242 C 299.842 311.146,300.547 311.279,300.712 312.721 C 300.828 313.732,300.895 313.761,303.343 313.868 L 305.854 313.977 305.200 312.760 C 304.635 311.708,304.530 310.285,304.424 302.308 C 304.273 290.921,303.836 289.396,300.277 287.822 C 298.527 287.048,291.090 286.829,288.822 287.485 M369.694 287.408 C 362.873 289.230,359.284 300.252,362.957 308.101 C 367.076 316.904,381.478 316.885,385.140 308.072 L 385.909 306.223 384.182 305.989 C 381.356 305.607,380.794 305.651,380.794 306.259 C 380.794 307.242,378.831 309.438,377.244 310.230 C 372.768 312.466,367.240 309.171,366.204 303.651 C 365.855 301.792,365.997 301.766,376.454 301.760 L 385.965 301.754 385.965 299.657 C 385.965 290.743,378.433 285.072,369.694 287.408 M245.614 300.646 L 245.614 313.943 247.830 313.943 L 250.046 313.943 250.046 300.646 L 250.046 287.350 247.830 287.350 L 245.614 287.350 245.614 300.646 M271.274 287.795 C 271.172 288.061,271.133 294.011,271.186 301.018 L 271.283 313.758 273.597 313.868 L 275.910 313.978 275.813 300.756 L 275.716 287.535 273.587 287.424 C 272.093 287.346,271.404 287.457,271.274 287.795 M325.762 300.646 L 325.762 313.943 327.978 313.943 L 330.194 313.943 330.194 300.646 L 330.194 287.350 327.978 287.350 L 325.762 287.350 325.762 300.646 M334.626 287.488 C 334.626 287.757,335.744 290.869,336.103 291.597 C 336.303 292.004,337.043 293.915,337.748 295.845 C 340.352 302.971,343.169 310.368,344.113 312.558 C 344.702 313.922,344.741 313.943,346.780 313.943 C 349.153 313.943,348.848 314.341,351.032 308.403 C 354.419 299.198,355.349 296.712,355.666 296.030 C 356.538 294.152,358.633 288.243,358.633 287.664 C 358.633 287.491,357.656 287.350,356.461 287.350 L 354.289 287.350 353.746 288.920 C 352.853 291.503,347.515 306.299,347.120 307.287 C 346.672 308.405,346.276 307.873,345.505 305.120 C 345.072 303.572,344.190 301.049,340.487 290.766 L 339.256 287.350 336.941 287.350 C 335.668 287.350,334.626 287.412,334.626 287.488 M376.847 291.240 C 379.134 292.357,380.241 293.668,380.865 296.002 C 381.503 298.387,381.408 298.418,373.507 298.425 L 366.773 298.430 366.553 297.552 C 365.481 293.283,372.374 289.057,376.847 291.240 M120.776 300.646 L 120.776 302.862 127.793 302.862 L 134.811 302.862 134.811 300.646 L 134.811 298.430 127.793 298.430 L 120.776 298.430 120.776 300.646 M299.611 303.232 C 299.260 309.620,292.148 313.586,287.668 309.893 C 283.960 306.837,286.222 303.329,292.541 302.337 C 294.460 302.036,296.528 301.627,297.138 301.428 C 299.369 300.699,299.736 300.966,299.611 303.232 " stroke="none" fill="#1255cc" fill-rule="evenodd"></path><path id="path1" d="M0.000 184.672 L 0.000 369.344 200.000 369.344 L 400.000 369.344 400.000 184.672 L 400.000 0.000 200.000 0.000 L 0.000 0.000 0.000 184.672 M205.355 51.049 C 212.269 52.743,217.418 58.630,218.316 65.867 C 218.675 68.761,218.761 68.957,220.447 70.729 C 224.586 75.080,242.480 93.684,247.090 98.430 C 249.853 101.274,254.598 106.175,257.636 109.320 C 269.942 122.066,274.623 126.879,274.931 127.104 C 275.109 127.234,276.106 126.955,277.147 126.483 C 288.944 121.141,301.570 129.264,301.570 142.198 C 301.570 149.912,298.669 154.801,292.193 158.001 L 289.420 159.372 284.599 159.360 C 280.430 159.350,279.506 159.234,277.764 158.505 L 275.749 157.661 270.004 163.503 C 256.926 176.800,225.269 209.318,220.808 214.035 C 218.472 216.506,218.352 216.722,218.103 218.921 C 216.935 229.230,205.657 236.282,195.429 233.099 C 187.661 230.682,182.378 222.662,183.362 214.784 C 183.638 212.579,183.597 212.528,180.609 211.293 C 177.690 210.086,171.454 207.542,163.804 204.436 C 157.005 201.676,144.792 196.671,135.959 193.024 L 131.014 190.983 128.780 193.005 C 123.354 197.915,115.760 199.057,109.396 195.921 C 96.101 189.369,96.168 171.020,109.511 164.508 L 112.465 163.066 116.898 163.133 C 119.335 163.171,121.852 163.254,122.491 163.318 C 123.624 163.432,123.842 163.170,131.263 152.766 C 135.449 146.898,138.873 141.978,138.873 141.833 C 138.873 141.593,124.428 121.379,123.734 120.647 C 123.571 120.475,121.966 120.541,120.167 120.793 C 103.086 123.188,92.967 103.973,104.776 91.564 C 111.415 84.588,122.996 84.594,129.807 91.578 C 131.619 93.435,131.375 93.448,136.379 91.245 C 141.418 89.027,154.681 83.336,163.989 79.397 C 167.747 77.807,173.647 75.282,177.101 73.785 L 183.380 71.064 183.612 67.388 C 184.350 55.731,194.213 48.319,205.355 51.049 M216.648 75.573 C 211.330 85.991,198.105 88.590,189.417 80.925 C 187.166 78.940,187.652 78.616,182.939 85.237 C 168.490 105.531,164.728 110.845,164.728 110.961 C 164.728 111.202,181.592 115.262,182.612 115.266 C 182.799 115.267,183.217 114.213,183.542 112.924 C 187.038 99.034,206.486 95.917,214.650 107.938 C 216.260 110.309,216.986 112.183,217.676 115.755 L 218.098 117.936 230.102 121.906 C 259.599 131.661,268.250 134.467,268.510 134.365 C 268.664 134.306,269.656 133.122,270.715 131.736 L 272.640 129.215 270.304 126.750 C 266.139 122.354,228.968 83.837,223.453 78.203 L 218.098 72.731 216.648 75.573 M183.010 74.449 C 182.401 74.736,174.257 78.221,164.912 82.194 C 155.568 86.167,145.679 90.392,142.936 91.583 C 140.194 92.775,137.036 94.123,135.919 94.580 C 133.131 95.721,133.144 95.699,133.817 98.134 C 134.143 99.312,134.521 101.149,134.657 102.215 C 134.894 104.064,134.966 104.167,136.243 104.487 C 136.979 104.671,140.905 105.604,144.968 106.561 C 149.030 107.518,153.934 108.680,155.863 109.143 C 157.793 109.606,159.814 110.085,160.354 110.208 C 161.502 110.469,160.713 111.474,173.227 93.813 C 177.761 87.415,182.357 80.953,183.441 79.455 C 185.569 76.512,185.758 75.831,184.765 74.678 C 184.173 73.991,184.025 73.972,183.010 74.449 M134.458 107.611 C 134.246 107.823,134.072 108.208,134.072 108.466 C 134.072 108.724,133.673 109.839,133.184 110.943 L 132.297 112.950 133.277 113.849 C 135.966 116.319,149.255 126.733,149.577 126.625 C 150.104 126.448,159.187 113.679,159.187 113.116 C 159.187 112.860,158.910 112.650,158.571 112.650 C 158.233 112.650,155.864 112.152,153.308 111.543 C 138.220 107.947,134.829 107.239,134.458 107.611 M159.410 118.285 C 157.661 120.772,155.322 124.054,154.213 125.577 C 153.104 127.101,152.194 128.513,152.190 128.717 C 152.183 129.115,152.178 129.110,160.568 135.870 L 166.195 140.405 170.854 136.777 C 173.416 134.781,177.562 131.522,180.067 129.533 L 184.622 125.917 184.129 124.731 C 183.857 124.079,183.436 122.531,183.193 121.291 C 182.600 118.266,182.851 118.454,177.839 117.297 C 175.402 116.735,171.330 115.786,168.790 115.189 C 166.251 114.592,163.818 114.027,163.382 113.934 C 162.721 113.792,162.068 114.507,159.410 118.285 M128.347 117.147 C 125.981 119.062,125.988 118.737,128.247 121.808 C 129.318 123.264,132.517 127.699,135.356 131.664 C 138.194 135.629,140.687 138.868,140.896 138.861 C 141.196 138.851,147.229 130.596,147.664 129.598 C 147.784 129.323,131.428 116.053,130.661 115.803 C 130.404 115.720,129.363 116.324,128.347 117.147 M216.836 123.328 C 213.103 135.078,197.728 139.076,188.565 130.679 L 186.214 128.525 178.887 134.225 C 174.858 137.360,170.921 140.478,170.141 141.154 L 168.721 142.383 177.569 149.493 C 187.488 157.462,186.725 157.038,188.078 155.343 C 196.369 144.951,216.151 150.322,218.127 163.502 C 218.259 164.379,218.460 165.097,218.574 165.097 C 218.785 165.097,240.694 157.729,257.987 151.842 L 267.590 148.573 267.510 147.509 C 267.465 146.924,267.325 145.115,267.198 143.490 C 267.071 141.865,267.130 139.834,267.329 138.977 L 267.691 137.418 265.688 136.668 C 264.586 136.256,263.575 135.919,263.441 135.919 C 263.226 135.919,232.710 125.933,221.732 122.270 L 217.609 120.894 216.836 123.328 M146.485 136.427 C 144.533 139.144,142.936 141.566,142.936 141.809 C 142.936 142.213,149.053 150.975,150.119 152.100 C 150.578 152.583,163.435 143.072,163.435 142.250 C 163.435 141.912,150.687 131.491,150.270 131.488 C 150.140 131.487,148.436 133.710,146.485 136.427 M159.187 149.561 C 155.591 152.394,152.724 154.917,152.724 155.249 C 152.724 155.797,162.204 169.295,162.884 169.715 C 163.048 169.817,164.154 169.665,165.340 169.377 C 166.527 169.089,170.656 168.158,174.515 167.308 C 183.838 165.255,183.311 165.448,183.691 163.960 C 183.868 163.265,184.245 162.070,184.527 161.304 C 184.810 160.538,185.042 159.767,185.042 159.590 C 185.042 159.113,166.682 144.409,166.126 144.441 C 165.865 144.456,162.742 146.760,159.187 149.561 M133.513 154.633 C 129.656 160.050,126.440 164.637,126.366 164.825 C 126.232 165.164,129.575 168.373,130.094 168.405 C 130.600 168.436,147.923 154.677,147.823 154.323 C 147.603 153.548,141.249 144.801,140.899 144.792 C 140.693 144.787,137.369 149.215,133.513 154.633 M262.050 153.536 C 258.190 154.859,247.054 158.650,237.304 161.959 C 227.553 165.267,219.306 168.084,218.978 168.219 C 218.584 168.379,218.304 169.115,218.155 170.381 C 217.377 177.004,210.785 183.298,203.493 184.380 C 194.318 185.742,185.066 179.089,183.741 170.175 C 183.432 168.098,183.596 168.125,178.628 169.326 C 176.569 169.824,172.748 170.728,170.136 171.335 C 167.525 171.942,165.303 172.524,165.200 172.627 C 165.013 172.814,169.367 179.052,178.765 192.059 C 181.480 195.817,184.543 200.090,185.572 201.553 C 187.777 204.691,187.601 204.643,190.013 202.782 C 199.064 195.799,212.742 199.363,216.852 209.775 C 217.296 210.899,217.766 211.944,217.897 212.097 C 218.127 212.364,223.381 207.132,237.833 192.241 C 245.961 183.867,256.114 173.462,265.836 163.544 C 273.382 155.845,273.399 155.822,272.114 154.610 C 271.657 154.179,270.785 153.219,270.175 152.478 L 269.067 151.129 262.050 153.536 M144.743 160.915 C 142.226 162.881,138.380 165.881,136.196 167.582 C 132.422 170.520,131.554 171.656,132.590 172.296 C 132.790 172.420,133.222 173.441,133.548 174.565 C 134.112 176.504,134.193 176.596,135.123 176.356 C 136.329 176.045,149.612 173.020,152.909 172.306 C 157.582 171.293,159.373 170.716,159.264 170.256 C 159.055 169.380,150.195 157.341,149.760 157.341 C 149.518 157.341,147.260 158.949,144.743 160.915 M157.341 174.211 C 131.220 180.237,134.442 179.265,134.437 181.119 C 134.432 182.798,133.694 185.893,132.981 187.225 C 132.341 188.421,132.665 188.642,138.319 190.878 C 140.960 191.922,144.284 193.259,145.706 193.849 C 149.234 195.314,164.995 201.776,174.885 205.813 C 185.021 209.951,184.489 209.828,185.264 208.201 L 185.883 206.903 177.406 195.141 C 172.743 188.672,167.360 181.180,165.443 178.492 C 161.512 172.980,161.867 173.167,157.341 174.211 M39.705 277.084 C 41.548 277.489,42.145 277.776,44.815 279.541 C 46.443 280.617,47.973 282.732,48.870 285.146 C 49.753 287.524,49.718 287.601,47.430 288.266 C 45.069 288.953,44.520 288.725,44.118 286.895 C 42.412 279.130,27.240 279.301,23.200 287.131 C 16.333 300.442,26.825 313.957,40.136 308.947 C 44.587 307.271,45.060 306.703,45.060 303.028 L 45.060 299.908 39.705 299.908 L 34.349 299.908 34.349 297.507 L 34.349 295.106 42.290 295.106 L 50.231 295.106 50.231 302.080 L 50.231 309.054 49.030 309.949 C 38.716 317.641,23.931 315.977,18.376 306.497 C 13.865 298.800,15.489 286.230,21.718 280.622 C 24.353 278.250,26.487 277.405,32.133 276.499 C 33.439 276.290,37.523 276.605,39.705 277.084 M62.487 290.408 L 62.604 303.808 63.547 305.640 C 65.113 308.681,66.910 309.668,71.165 309.824 C 80.256 310.159,81.256 308.098,81.256 289.031 L 81.256 277.008 83.841 277.008 L 86.427 277.008 86.427 289.683 C 86.427 307.865,85.610 310.556,79.151 313.648 C 76.548 314.894,67.215 314.921,64.552 313.691 C 58.103 310.711,57.266 308.177,56.984 290.781 C 56.746 276.064,56.552 277.008,59.816 277.008 L 62.370 277.008 62.487 290.408 M121.070 279.317 L 120.960 281.625 114.962 281.727 L 108.964 281.828 108.868 297.978 L 108.772 314.127 106.283 314.237 L 103.794 314.346 103.697 298.170 L 103.601 281.994 97.707 281.892 C 91.261 281.781,91.243 281.774,91.234 279.532 C 91.222 276.814,90.051 277.008,106.428 277.008 L 121.180 277.008 121.070 279.317 M157.153 280.425 C 157.920 282.304,158.766 284.340,159.034 284.949 C 159.302 285.559,160.294 287.969,161.239 290.305 C 162.183 292.641,163.875 296.796,164.997 299.538 C 171.780 316.111,171.446 314.312,167.744 314.312 L 164.852 314.312 164.451 313.112 C 164.231 312.452,163.312 310.000,162.408 307.664 L 160.766 303.416 153.177 303.317 L 145.588 303.217 144.996 304.794 C 144.670 305.661,143.778 308.116,143.015 310.249 L 141.627 314.127 138.957 314.236 C 135.761 314.366,135.734 314.297,137.353 310.185 C 138.584 307.059,140.129 303.047,142.024 298.061 C 142.757 296.131,143.840 293.306,144.430 291.782 C 148.363 281.627,149.528 278.573,149.751 277.839 C 149.985 277.070,150.218 277.008,152.881 277.008 L 155.758 277.008 157.153 280.425 M180.240 295.677 L 180.240 314.346 177.747 314.237 L 175.254 314.127 175.158 295.568 L 175.062 277.008 177.651 277.008 L 180.240 277.008 180.240 295.677 M209.049 295.660 L 209.049 314.312 206.464 314.312 L 203.878 314.312 203.878 295.660 L 203.878 277.008 206.464 277.008 L 209.049 277.008 209.049 295.660 M250.339 279.686 L 250.231 282.364 247.830 282.364 L 245.429 282.364 245.321 279.686 L 245.212 277.008 247.830 277.008 L 250.448 277.008 250.339 279.686 M275.900 279.778 L 275.900 282.548 273.500 282.548 L 271.099 282.548 271.099 279.778 L 271.099 277.008 273.500 277.008 L 275.900 277.008 275.900 279.778 M330.563 279.795 L 330.563 282.582 328.070 282.473 L 325.577 282.364 325.465 280.189 C 325.304 277.072,325.357 277.008,328.151 277.008 L 330.563 277.008 330.563 279.795 M262.604 282.552 L 262.604 286.944 264.728 287.055 L 266.851 287.165 266.963 289.104 L 267.075 291.043 264.839 291.043 L 262.604 291.043 262.604 299.641 C 262.604 309.635,262.670 309.880,265.368 309.880 L 266.983 309.880 267.438 311.914 C 268.009 314.466,267.973 314.497,264.327 314.497 C 258.074 314.497,257.719 313.793,257.502 300.939 L 257.335 291.043 255.888 291.043 L 254.440 291.043 254.551 289.104 L 254.663 287.165 256.048 287.051 L 257.433 286.936 257.439 284.096 C 257.445 280.724,257.497 280.624,260.057 279.066 C 262.645 277.489,262.604 277.432,262.604 282.552 M316.898 282.530 L 316.898 286.944 319.021 287.055 L 321.145 287.165 321.257 289.104 L 321.368 291.043 319.133 291.043 L 316.898 291.043 316.898 299.850 C 316.898 309.854,316.863 309.734,319.850 309.947 L 321.508 310.065 321.793 312.060 C 322.137 314.467,322.255 314.332,319.604 314.570 C 316.814 314.821,314.730 314.235,313.371 312.817 L 312.281 311.679 312.167 301.361 L 312.053 291.043 310.413 291.043 L 308.772 291.043 308.772 289.012 L 308.772 286.981 310.434 286.981 L 312.096 286.981 312.096 283.740 L 312.096 280.500 314.034 279.308 C 316.934 277.525,316.898 277.485,316.898 282.530 M152.373 283.874 C 152.236 284.603,151.054 288.125,149.746 291.702 C 148.438 295.279,147.368 298.339,147.368 298.502 C 147.368 298.666,149.945 298.800,153.093 298.800 C 156.242 298.800,158.818 298.728,158.818 298.640 C 158.818 298.552,158.140 296.682,157.312 294.484 C 156.483 292.287,155.195 288.705,154.449 286.525 C 152.965 282.186,152.743 281.902,152.373 283.874 M233.995 287.485 C 238.358 289.517,238.727 290.780,238.757 303.786 L 238.781 314.127 236.288 314.237 L 233.795 314.346 233.795 304.714 C 233.795 292.051,233.275 290.835,227.992 291.132 C 222.639 291.433,221.676 293.645,221.635 305.725 L 221.607 314.312 219.201 314.312 L 216.796 314.312 216.893 300.739 L 216.990 287.165 219.021 287.165 L 221.053 287.165 221.237 288.607 L 221.422 290.049 222.585 289.068 C 225.660 286.472,230.405 285.814,233.995 287.485 M300.327 287.626 C 304.110 289.327,304.677 291.358,304.697 303.278 C 304.706 308.751,304.845 310.910,305.263 312.096 C 306.051 314.329,306.065 314.312,303.387 314.312 L 300.956 314.312 300.374 312.830 C 299.859 311.518,299.724 311.407,299.203 311.865 C 294.293 316.184,284.487 315.496,281.930 310.653 C 278.577 304.300,282.447 299.984,293.066 298.235 C 299.945 297.101,299.538 297.266,299.538 295.620 C 299.538 289.658,288.889 288.768,286.975 294.570 L 286.554 295.845 284.459 295.613 C 281.481 295.284,281.253 294.094,283.512 290.680 C 285.972 286.962,295.145 285.296,300.327 287.626 M379.525 287.808 C 383.334 289.768,385.367 292.983,385.979 298.015 C 386.522 302.480,387.373 302.124,376.155 302.124 C 365.293 302.124,366.026 301.907,366.913 304.852 C 368.858 311.317,377.111 312.794,380.055 307.203 C 381.177 305.074,385.965 304.514,385.965 306.512 C 385.965 313.688,371.886 317.504,365.573 312.039 C 359.878 307.109,359.677 295.504,365.193 289.989 C 368.697 286.485,375.070 285.515,379.525 287.808 M250.231 300.646 L 250.231 314.127 247.830 314.127 L 245.429 314.127 245.332 301.018 C 245.218 285.616,244.977 286.915,247.918 287.055 L 250.231 287.165 250.231 300.646 M275.812 300.739 L 275.909 314.312 273.504 314.312 L 271.099 314.312 271.099 300.893 C 271.099 285.882,270.908 286.910,273.670 287.057 L 275.716 287.165 275.812 300.739 M330.475 300.756 L 330.572 314.346 328.075 314.237 L 325.577 314.127 325.474 301.385 C 325.348 285.814,325.148 286.916,328.082 287.056 L 330.379 287.165 330.475 300.756 M339.384 287.482 C 339.613 287.758,340.109 288.880,340.486 289.975 C 340.864 291.071,341.875 293.961,342.732 296.399 C 343.590 298.837,344.828 302.395,345.483 304.306 L 346.673 307.780 347.495 305.414 C 347.947 304.112,348.621 302.216,348.993 301.200 C 351.026 295.652,353.184 289.841,353.898 287.996 C 354.265 287.047,354.434 286.981,356.474 286.981 C 359.638 286.981,359.732 286.195,355.118 298.246 C 354.184 300.683,352.775 304.423,351.986 306.556 C 351.197 308.689,350.226 311.265,349.828 312.281 L 349.105 314.127 346.759 314.127 L 344.414 314.127 343.204 310.988 C 341.925 307.670,340.241 303.252,338.277 298.061 C 337.623 296.334,336.452 293.284,335.673 291.284 C 334.895 289.283,334.351 287.496,334.464 287.313 C 334.799 286.772,338.912 286.913,339.384 287.482 M371.813 291.050 C 369.382 291.779,366.759 294.999,366.759 297.254 C 366.759 298.054,366.814 298.061,373.500 298.055 C 381.371 298.049,381.237 298.092,380.552 295.762 C 379.450 292.015,375.569 289.922,371.813 291.050 M134.811 300.839 L 134.811 303.248 127.701 303.147 L 120.591 303.047 120.481 300.739 L 120.371 298.430 127.591 298.430 L 134.811 298.430 134.811 300.839 M294.692 302.143 C 287.629 303.466,286.406 304.193,286.480 307.020 C 286.675 314.451,299.496 310.639,299.530 303.139 C 299.540 301.103,299.873 301.172,294.692 302.143 " stroke="none" fill="#ffffff" fill-rule="evenodd"></path><path id="path2" d="M198.689 50.628 C 189.974 51.887,184.186 58.322,183.612 67.388 L 183.380 71.064 177.101 73.785 C 173.647 75.282,167.747 77.807,163.989 79.397 C 154.681 83.336,141.418 89.027,136.379 91.245 C 131.375 93.448,131.619 93.435,129.807 91.578 C 122.996 84.594,111.415 84.588,104.776 91.564 C 92.967 103.973,103.086 123.188,120.167 120.793 C 121.966 120.541,123.571 120.475,123.734 120.647 C 124.428 121.379,138.873 141.593,138.873 141.833 C 138.873 141.978,135.449 146.898,131.263 152.766 C 123.842 163.170,123.624 163.432,122.491 163.318 C 121.852 163.254,119.335 163.171,116.898 163.133 L 112.465 163.066 109.511 164.508 C 96.168 171.020,96.101 189.369,109.396 195.921 C 115.760 199.057,123.354 197.915,128.780 193.005 L 131.014 190.983 135.959 193.024 C 144.792 196.671,157.005 201.676,163.804 204.436 C 171.454 207.542,177.690 210.086,180.609 211.293 C 183.597 212.528,183.638 212.579,183.362 214.784 C 182.378 222.662,187.661 230.682,195.429 233.099 C 205.657 236.282,216.935 229.230,218.103 218.921 C 218.352 216.722,218.472 216.506,220.808 214.035 C 225.269 209.318,256.926 176.800,270.004 163.503 L 275.749 157.661 277.764 158.505 C 279.506 159.234,280.430 159.350,284.599 159.360 L 289.420 159.372 292.193 158.001 C 305.339 151.504,304.869 131.348,291.455 126.331 C 286.870 124.617,281.134 124.678,277.147 126.483 C 274.808 127.542,277.611 130.008,257.636 109.320 C 254.598 106.175,249.853 101.274,247.090 98.430 C 242.480 93.684,224.586 75.080,220.447 70.729 C 218.761 68.957,218.675 68.761,218.316 65.867 C 217.111 56.157,208.218 49.252,198.689 50.628 M248.388 103.980 C 259.157 115.147,269.019 125.394,270.304 126.750 L 272.640 129.215 270.715 131.736 C 269.656 133.122,268.664 134.306,268.510 134.365 C 268.250 134.467,259.599 131.661,230.102 121.906 L 218.098 117.936 217.676 115.755 C 216.986 112.183,216.260 110.309,214.650 107.938 C 206.486 95.917,187.038 99.034,183.542 112.924 C 183.217 114.213,182.799 115.267,182.612 115.266 C 181.592 115.262,164.728 111.202,164.728 110.961 C 164.728 110.845,168.490 105.531,182.939 85.237 C 187.652 78.616,187.166 78.940,189.417 80.925 C 198.105 88.590,211.330 85.991,216.648 75.573 L 218.098 72.731 223.453 78.203 C 226.399 81.213,237.620 92.812,248.388 103.980 M185.411 76.080 C 185.411 76.438,184.524 77.957,183.441 79.455 C 182.357 80.953,177.761 87.415,173.227 93.813 C 160.713 111.474,161.502 110.469,160.354 110.208 C 159.814 110.085,157.793 109.606,155.863 109.143 C 153.934 108.680,149.030 107.518,144.968 106.561 C 140.905 105.604,136.979 104.671,136.243 104.487 C 134.966 104.167,134.894 104.064,134.657 102.215 C 134.521 101.149,134.143 99.312,133.817 98.134 C 133.144 95.699,133.131 95.721,135.919 94.580 C 137.036 94.123,140.194 92.775,142.936 91.583 C 145.679 90.392,155.568 86.167,164.912 82.194 C 174.257 78.221,182.401 74.736,183.010 74.449 C 184.235 73.872,185.411 74.671,185.411 76.080 M153.308 111.543 C 155.864 112.152,158.233 112.650,158.571 112.650 C 158.910 112.650,159.187 112.860,159.187 113.116 C 159.187 113.679,150.104 126.448,149.577 126.625 C 149.255 126.733,135.966 116.319,133.277 113.849 L 132.297 112.950 133.184 110.943 C 133.673 109.839,134.072 108.724,134.072 108.466 C 134.072 106.983,134.392 107.035,153.308 111.543 M168.790 115.189 C 171.330 115.786,175.402 116.735,177.839 117.297 C 182.851 118.454,182.600 118.266,183.193 121.291 C 183.436 122.531,183.857 124.079,184.129 124.731 L 184.622 125.917 180.067 129.533 C 177.562 131.522,173.416 134.781,170.854 136.777 L 166.195 140.405 160.568 135.870 C 152.178 129.110,152.183 129.115,152.190 128.717 C 152.194 128.513,153.104 127.101,154.213 125.577 C 155.322 124.054,157.661 120.772,159.410 118.285 C 162.068 114.507,162.721 113.792,163.382 113.934 C 163.818 114.027,166.251 114.592,168.790 115.189 M139.451 122.650 C 144.029 126.332,147.725 129.459,147.664 129.598 C 147.229 130.596,141.196 138.851,140.896 138.861 C 140.687 138.868,138.194 135.629,135.356 131.664 C 132.517 127.699,129.318 123.264,128.247 121.808 C 125.988 118.737,125.981 119.062,128.347 117.147 C 130.659 115.275,129.678 114.789,139.451 122.650 M244.526 129.782 C 254.795 133.157,263.307 135.919,263.441 135.919 C 263.575 135.919,264.586 136.256,265.688 136.668 L 267.691 137.418 267.329 138.977 C 267.130 139.834,267.071 141.865,267.198 143.490 C 267.325 145.115,267.465 146.924,267.510 147.509 L 267.590 148.573 257.987 151.842 C 240.694 157.729,218.785 165.097,218.574 165.097 C 218.460 165.097,218.259 164.379,218.127 163.502 C 216.151 150.322,196.369 144.951,188.078 155.343 C 186.725 157.038,187.488 157.462,177.569 149.493 L 168.721 142.383 170.141 141.154 C 170.921 140.478,174.858 137.360,178.887 134.225 L 186.214 128.525 188.565 130.679 C 197.728 139.076,213.103 135.078,216.836 123.328 L 217.609 120.894 221.732 122.270 C 223.999 123.026,234.256 126.407,244.526 129.782 M156.971 136.708 C 160.526 139.578,163.435 142.072,163.435 142.250 C 163.435 143.072,150.578 152.583,150.119 152.100 C 149.053 150.975,142.936 142.213,142.936 141.809 C 142.936 141.302,149.911 131.486,150.270 131.488 C 150.401 131.489,153.416 133.838,156.971 136.708 M175.822 151.841 C 180.893 155.926,185.042 159.413,185.042 159.590 C 185.042 159.767,184.810 160.538,184.527 161.304 C 184.245 162.070,183.868 163.265,183.691 163.960 C 183.311 165.448,183.838 165.255,174.515 167.308 C 170.656 168.158,166.527 169.089,165.340 169.377 C 164.154 169.665,163.048 169.817,162.884 169.715 C 162.204 169.295,152.724 155.797,152.724 155.249 C 152.724 154.626,165.294 144.490,166.126 144.441 C 166.388 144.426,170.751 147.756,175.822 151.841 M144.498 149.386 C 146.272 151.908,147.768 154.130,147.823 154.323 C 147.923 154.677,130.600 168.436,130.094 168.405 C 129.575 168.373,126.232 165.164,126.366 164.825 C 126.751 163.846,140.581 144.784,140.899 144.792 C 141.106 144.797,142.725 146.865,144.498 149.386 M272.114 154.610 C 273.399 155.822,273.382 155.845,265.836 163.544 C 256.114 173.462,245.961 183.867,237.833 192.241 C 223.381 207.132,218.127 212.364,217.897 212.097 C 217.766 211.944,217.296 210.899,216.852 209.775 C 212.742 199.363,199.064 195.799,190.013 202.782 C 187.601 204.643,187.777 204.691,185.572 201.553 C 184.543 200.090,181.480 195.817,178.765 192.059 C 169.367 179.052,165.013 172.814,165.200 172.627 C 165.303 172.524,167.525 171.942,170.136 171.335 C 172.748 170.728,176.569 169.824,178.628 169.326 C 183.596 168.125,183.432 168.098,183.741 170.175 C 185.066 179.089,194.318 185.742,203.493 184.380 C 210.785 183.298,217.377 177.004,218.155 170.381 C 218.304 169.115,218.584 168.379,218.978 168.219 C 219.306 168.084,227.553 165.267,237.304 161.959 C 247.054 158.650,258.190 154.859,262.050 153.536 L 269.067 151.129 270.175 152.478 C 270.785 153.219,271.657 154.179,272.114 154.610 M154.678 163.571 C 157.140 166.998,159.204 170.006,159.264 170.256 C 159.373 170.716,157.582 171.293,152.909 172.306 C 149.612 173.020,136.329 176.045,135.123 176.356 C 134.193 176.596,134.112 176.504,133.548 174.565 C 133.222 173.441,132.790 172.420,132.590 172.296 C 131.554 171.656,132.422 170.520,136.196 167.582 C 138.380 165.881,142.226 162.881,144.743 160.915 C 147.260 158.949,149.518 157.341,149.760 157.341 C 150.002 157.341,152.215 160.145,154.678 163.571 M165.443 178.492 C 167.360 181.180,172.743 188.672,177.406 195.141 L 185.883 206.903 185.264 208.201 C 184.489 209.828,185.021 209.951,174.885 205.813 C 164.995 201.776,149.234 195.314,145.706 193.849 C 144.284 193.259,140.960 191.922,138.319 190.878 C 132.665 188.642,132.341 188.421,132.981 187.225 C 133.694 185.893,134.432 182.798,134.437 181.119 C 134.442 179.327,133.229 179.774,146.260 176.767 C 151.034 175.666,156.020 174.516,157.341 174.211 C 161.867 173.167,161.512 172.980,165.443 178.492 M33.333 276.524 C 33.689 276.617,34.271 276.617,34.626 276.524 C 34.982 276.431,34.691 276.355,33.980 276.355 C 33.269 276.355,32.978 276.431,33.333 276.524 M26.842 277.544 C 26.065 277.822,25.318 278.173,25.180 278.326 C 25.043 278.478,25.263 278.476,25.669 278.320 C 26.076 278.164,26.948 277.880,27.608 277.690 C 28.269 277.499,28.809 277.268,28.809 277.176 C 28.809 276.917,28.374 276.998,26.842 277.544 M39.563 277.174 C 39.687 277.299,40.340 277.559,41.014 277.752 C 41.689 277.945,42.085 277.962,41.896 277.788 C 41.504 277.429,39.216 276.827,39.563 277.174 M57.109 277.577 C 56.983 277.907,56.916 282.942,56.961 288.765 L 57.042 299.354 57.238 288.273 C 57.448 276.365,57.451 276.685,57.109 277.577 M62.216 289.381 C 62.216 296.288,62.266 299.061,62.326 295.544 C 62.387 292.027,62.387 286.376,62.326 282.987 C 62.265 279.597,62.216 282.475,62.216 289.381 M91.505 277.500 C 91.147 278.374,91.157 280.758,91.521 281.330 C 91.716 281.637,93.636 281.807,97.760 281.884 C 101.036 281.945,103.639 281.870,103.545 281.717 C 103.450 281.565,100.814 281.440,97.687 281.440 L 92.002 281.440 91.892 279.132 C 91.822 277.662,91.682 277.069,91.505 277.500 M120.844 279.123 L 120.776 281.422 114.774 281.524 L 108.772 281.625 108.676 297.767 L 108.580 313.909 106.275 314.044 L 103.970 314.178 106.371 314.153 L 108.772 314.127 108.868 297.969 L 108.964 281.810 114.882 281.810 C 121.561 281.810,121.267 281.953,121.050 278.811 L 120.912 276.824 120.844 279.123 M149.626 278.157 C 149.398 278.810,149.276 279.409,149.355 279.488 C 149.434 279.567,149.685 279.097,149.913 278.445 C 150.140 277.792,150.262 277.193,150.183 277.114 C 150.104 277.035,149.853 277.505,149.626 278.157 M175.249 295.568 L 175.254 314.127 177.655 314.153 L 180.055 314.178 177.750 314.044 L 175.445 313.909 175.344 295.459 L 175.244 277.008 175.249 295.568 M208.680 295.459 L 208.680 313.909 206.187 314.038 L 203.693 314.167 206.371 314.240 L 209.049 314.312 209.049 295.660 C 209.049 285.402,208.966 277.008,208.864 277.008 C 208.763 277.008,208.680 285.311,208.680 295.459 M245.401 279.594 L 245.429 282.364 247.830 282.364 L 250.231 282.364 250.255 279.778 L 250.279 277.193 250.147 279.686 L 250.014 282.179 247.830 282.179 L 245.646 282.179 245.510 279.501 L 245.373 276.824 245.401 279.594 M330.194 279.594 L 330.194 282.179 327.995 282.179 L 325.796 282.179 325.657 279.686 L 325.518 277.193 325.548 279.778 L 325.577 282.364 328.070 282.473 L 330.563 282.582 330.563 279.795 C 330.563 278.262,330.480 277.008,330.379 277.008 C 330.277 277.008,330.194 278.172,330.194 279.594 M261.649 278.167 C 261.482 278.437,261.542 278.501,261.808 278.336 C 262.122 278.142,262.235 279.291,262.235 282.680 L 262.235 287.287 264.601 287.411 C 265.903 287.479,266.890 287.410,266.795 287.258 C 266.701 287.105,265.719 286.981,264.613 286.981 L 262.604 286.981 262.604 282.570 C 262.604 278.481,262.306 277.105,261.649 278.167 M23.628 279.096 C 22.272 280.001,20.355 281.846,19.465 283.102 C 19.033 283.712,19.670 283.202,20.882 281.969 C 22.093 280.737,23.500 279.458,24.007 279.126 C 24.515 278.795,24.843 278.516,24.736 278.505 C 24.629 278.494,24.130 278.760,23.628 279.096 M257.815 280.677 C 257.605 281.070,257.433 282.649,257.433 284.186 L 257.433 286.981 256.162 286.981 C 255.463 286.981,254.814 287.105,254.720 287.258 C 254.626 287.410,255.281 287.476,256.176 287.405 L 257.802 287.276 257.802 284.334 C 257.802 282.716,257.974 281.070,258.185 280.677 C 258.395 280.285,258.484 279.963,258.382 279.963 C 258.281 279.963,258.026 280.285,257.815 280.677 M30.946 281.005 C 30.598 281.143,32.047 281.256,34.164 281.256 C 36.282 281.256,37.730 281.143,37.382 281.005 C 37.034 280.867,35.586 280.754,34.164 280.754 C 32.742 280.754,31.294 280.867,30.946 281.005 M157.367 281.625 C 157.367 281.828,157.604 282.410,157.895 282.918 C 158.185 283.426,158.423 283.675,158.423 283.472 C 158.423 283.269,158.185 282.687,157.895 282.179 C 157.604 281.671,157.367 281.422,157.367 281.625 M27.147 282.505 C 26.537 282.885,25.458 283.840,24.748 284.627 L 23.457 286.057 25.117 284.529 C 26.030 283.689,27.276 282.740,27.886 282.420 C 28.495 282.101,28.827 281.833,28.624 281.826 C 28.421 281.819,27.756 282.124,27.147 282.505 M147.779 282.959 C 147.551 283.612,147.430 284.210,147.509 284.289 C 147.588 284.368,147.839 283.899,148.066 283.246 C 148.294 282.593,148.415 281.995,148.336 281.916 C 148.257 281.837,148.006 282.306,147.779 282.959 M271.099 282.269 C 271.099 282.423,272.221 282.526,273.592 282.498 C 276.175 282.446,275.888 282.291,272.853 282.100 C 271.888 282.039,271.099 282.115,271.099 282.269 M41.083 282.956 C 41.639 283.370,42.525 284.237,43.052 284.883 C 43.580 285.529,43.839 285.706,43.627 285.277 C 43.220 284.453,40.788 282.171,40.338 282.191 C 40.193 282.197,40.528 282.542,41.083 282.956 M153.859 285.134 C 153.995 285.642,154.260 286.307,154.448 286.611 C 154.686 286.996,154.715 286.884,154.544 286.242 C 154.408 285.734,154.143 285.069,153.954 284.765 C 153.716 284.380,153.687 284.492,153.859 285.134 M151.474 285.909 C 151.247 286.559,151.074 287.274,151.088 287.497 C 151.102 287.721,151.352 287.254,151.643 286.459 C 151.935 285.664,152.108 284.949,152.029 284.870 C 151.951 284.791,151.701 285.259,151.474 285.909 M159.249 286.261 C 159.465 286.881,159.711 287.319,159.794 287.235 C 159.977 287.052,159.280 285.134,159.031 285.134 C 158.935 285.134,159.033 285.641,159.249 286.261 M146.552 286.067 C 146.438 286.468,146.232 287.128,146.094 287.535 C 145.957 287.941,146.114 287.806,146.445 287.235 C 146.775 286.665,146.981 286.004,146.903 285.768 C 146.824 285.531,146.666 285.666,146.552 286.067 M22.697 287.384 C 22.372 288.013,22.172 288.592,22.252 288.672 C 22.332 288.752,22.674 288.238,23.012 287.530 C 23.771 285.937,23.508 285.815,22.697 287.384 M44.198 287.238 C 44.577 288.298,45.104 288.829,45.752 288.804 C 46.158 288.788,46.084 288.673,45.522 288.446 C 45.065 288.263,44.691 287.868,44.691 287.568 C 44.691 287.269,44.526 286.923,44.326 286.799 C 44.108 286.664,44.057 286.842,44.198 287.238 M225.854 287.178 C 225.016 287.582,224.971 287.645,225.669 287.439 C 226.177 287.288,227.922 287.165,229.548 287.165 C 231.173 287.165,232.918 287.288,233.426 287.439 C 234.124 287.645,234.079 287.582,233.241 287.178 C 232.599 286.869,231.045 286.645,229.548 286.645 C 228.051 286.645,226.496 286.869,225.854 287.178 M289.012 287.179 C 287.620 287.661,287.609 287.675,288.827 287.428 C 289.538 287.283,292.167 287.165,294.668 287.165 C 297.169 287.165,298.831 287.057,298.361 286.925 C 296.788 286.483,290.533 286.653,289.012 287.179 M370.372 286.893 C 370.023 287.043,371.353 287.165,373.327 287.165 C 375.301 287.165,377.415 287.292,378.024 287.447 C 378.996 287.695,379.041 287.674,378.393 287.280 C 377.562 286.773,371.349 286.474,370.372 286.893 M217.068 287.210 C 216.923 287.355,216.805 293.512,216.805 300.893 L 216.805 314.312 219.206 314.312 C 220.526 314.312,221.607 314.187,221.607 314.035 C 221.608 313.883,220.610 313.814,219.391 313.883 L 217.175 314.008 217.175 300.679 L 217.175 287.350 218.999 287.350 L 220.823 287.350 220.938 288.706 C 221.039 289.905,221.976 291.022,221.976 289.944 C 221.976 289.712,221.820 289.619,221.629 289.737 C 221.439 289.854,221.231 289.324,221.168 288.558 L 221.053 287.165 219.192 287.056 C 218.168 286.996,217.213 287.066,217.068 287.210 M245.420 287.426 C 245.318 287.691,245.279 293.807,245.332 301.018 L 245.429 314.127 247.830 314.127 L 250.231 314.127 250.231 300.646 L 250.231 287.165 247.918 287.055 C 246.275 286.977,245.551 287.085,245.420 287.426 M271.341 287.258 C 271.246 287.410,272.218 287.535,273.500 287.535 C 274.781 287.535,275.753 287.410,275.659 287.258 C 275.564 287.105,274.593 286.981,273.500 286.981 C 272.406 286.981,271.435 287.105,271.341 287.258 M309.608 287.246 C 310.169 287.331,311.000 287.328,311.455 287.241 C 311.909 287.153,311.450 287.083,310.434 287.086 C 309.418 287.089,309.047 287.161,309.608 287.246 M317.267 287.190 C 318.508 287.467,321.247 287.516,321.088 287.258 C 320.994 287.105,319.971 287.000,318.815 287.023 C 317.659 287.047,316.962 287.122,317.267 287.190 M327.886 287.244 L 330.194 287.385 330.194 300.664 L 330.194 313.943 327.983 313.943 L 325.771 313.943 325.667 300.739 L 325.563 287.535 325.570 300.831 L 325.577 314.127 328.075 314.237 L 330.572 314.346 330.475 300.756 L 330.379 287.165 327.978 287.134 L 325.577 287.103 327.886 287.244 M334.454 287.330 C 334.335 287.522,334.490 288.228,334.798 288.899 C 335.302 290.000,335.251 289.225,334.728 287.830 C 334.612 287.522,335.277 287.347,336.902 287.255 L 339.243 287.123 336.956 287.052 C 335.699 287.013,334.573 287.138,334.454 287.330 M356.360 287.255 C 358.920 287.399,358.803 287.225,358.076 289.809 C 357.970 290.183,358.145 289.927,358.464 289.240 C 359.357 287.320,359.016 286.970,356.337 287.052 L 354.017 287.123 356.360 287.255 M250.046 300.646 L 250.046 313.943 247.830 313.943 L 245.614 313.943 245.614 300.646 L 245.614 287.350 247.830 287.350 L 250.046 287.350 250.046 300.646 M339.639 288.458 C 339.775 288.966,340.040 289.631,340.229 289.935 C 340.466 290.320,340.495 290.208,340.324 289.566 C 340.188 289.058,339.923 288.393,339.735 288.089 C 339.497 287.704,339.468 287.816,339.639 288.458 M366.537 288.766 C 365.745 289.341,364.848 290.131,364.543 290.520 C 364.238 290.910,364.575 290.729,365.290 290.120 C 366.006 289.511,367.003 288.730,367.506 288.385 C 368.009 288.040,368.321 287.749,368.199 287.739 C 368.078 287.728,367.330 288.190,366.537 288.766 M285.391 288.777 C 284.821 289.152,284.086 289.858,283.759 290.344 C 283.227 291.133,283.279 291.119,284.241 290.208 C 284.834 289.647,285.651 288.946,286.057 288.650 C 287.124 287.873,286.614 287.970,285.391 288.777 M381.099 289.064 C 381.775 289.645,382.772 290.625,383.315 291.242 C 383.858 291.860,384.145 292.109,383.953 291.796 C 383.321 290.771,381.363 288.774,380.609 288.387 C 380.203 288.178,380.423 288.483,381.099 289.064 M155.336 289.197 C 155.472 289.705,155.737 290.369,155.926 290.674 C 156.164 291.059,156.193 290.946,156.021 290.305 C 155.885 289.797,155.620 289.132,155.432 288.827 C 155.194 288.442,155.165 288.555,155.336 289.197 M160.507 289.197 C 160.643 289.705,160.908 290.369,161.096 290.674 C 161.334 291.059,161.363 290.946,161.192 290.305 C 161.056 289.797,160.791 289.132,160.603 288.827 C 160.365 288.442,160.336 288.555,160.507 289.197 M16.495 289.361 C 16.375 289.672,16.192 290.801,16.086 291.870 C 15.900 293.757,15.909 293.744,16.401 291.413 C 16.895 289.075,16.934 288.217,16.495 289.361 M144.824 290.715 C 144.597 291.368,144.475 291.967,144.554 292.046 C 144.633 292.125,144.884 291.655,145.111 291.002 C 145.339 290.350,145.460 289.751,145.381 289.672 C 145.302 289.593,145.052 290.062,144.824 290.715 M237.145 290.120 C 237.145 290.323,237.383 290.905,237.673 291.413 C 237.963 291.921,238.201 292.170,238.201 291.967 C 238.201 291.764,237.963 291.182,237.673 290.674 C 237.383 290.166,237.145 289.917,237.145 290.120 M291.228 290.670 C 290.768 290.866,291.257 290.906,292.521 290.777 C 293.638 290.664,294.621 290.511,294.706 290.438 C 295.024 290.163,291.936 290.370,291.228 290.670 M303.663 291.432 C 303.879 292.051,304.124 292.490,304.208 292.406 C 304.391 292.223,303.694 290.305,303.445 290.305 C 303.349 290.305,303.447 290.812,303.663 291.432 M372.427 290.587 C 372.192 290.737,372.883 290.859,373.961 290.859 C 375.040 290.859,375.730 290.737,375.496 290.587 C 375.261 290.438,374.571 290.316,373.961 290.316 C 373.352 290.316,372.661 290.438,372.427 290.587 M21.283 291.242 C 21.156 291.572,21.077 292.618,21.107 293.567 C 21.160 295.254,21.167 295.243,21.412 293.075 C 21.681 290.708,21.651 290.284,21.283 291.242 M227.797 290.935 C 228.257 291.024,228.922 291.020,229.275 290.928 C 229.628 290.835,229.252 290.763,228.440 290.767 C 227.627 290.771,227.338 290.847,227.797 290.935 M257.589 300.876 C 257.667 310.440,257.707 310.951,258.469 312.141 C 258.908 312.827,259.270 313.258,259.274 313.099 C 259.277 312.939,259.003 312.386,258.664 311.869 C 258.147 311.080,258.006 309.326,257.778 300.894 L 257.508 290.859 257.589 300.876 M262.314 299.590 C 262.242 307.458,262.298 308.390,262.881 309.025 C 263.236 309.413,263.361 309.489,263.158 309.195 C 262.951 308.896,262.701 304.737,262.591 299.760 L 262.393 290.859 262.314 299.590 M223.903 292.428 C 223.020 293.292,223.005 293.334,223.805 292.711 C 225.381 291.483,225.457 291.413,225.195 291.413 C 225.056 291.413,224.475 291.870,223.903 292.428 M297.630 291.667 C 297.900 291.775,298.440 292.386,298.829 293.023 C 299.217 293.661,299.536 293.997,299.537 293.771 C 299.539 293.151,298.069 291.409,297.572 291.442 C 297.296 291.460,297.317 291.543,297.630 291.667 M336.165 292.540 C 336.381 293.159,336.627 293.598,336.710 293.514 C 336.893 293.331,336.196 291.413,335.947 291.413 C 335.851 291.413,335.949 291.920,336.165 292.540 M363.209 292.348 C 362.872 292.862,362.663 293.350,362.745 293.432 C 362.828 293.514,363.175 293.093,363.517 292.497 C 364.279 291.169,364.053 291.059,363.209 292.348 M369.207 292.180 C 368.671 292.602,368.055 293.308,367.840 293.750 C 367.489 294.468,367.522 294.460,368.160 293.669 C 368.551 293.184,369.269 292.481,369.754 292.108 C 370.240 291.735,370.535 291.425,370.410 291.421 C 370.285 291.416,369.744 291.758,369.207 292.180 M341.117 292.521 C 341.252 293.029,341.518 293.693,341.706 293.998 C 341.944 294.383,341.973 294.271,341.801 293.629 C 341.665 293.121,341.400 292.456,341.212 292.151 C 340.974 291.766,340.945 291.879,341.117 292.521 M356.828 292.931 C 356.600 293.584,356.479 294.183,356.558 294.262 C 356.637 294.341,356.887 293.871,357.115 293.218 C 357.343 292.566,357.464 291.967,357.385 291.888 C 357.306 291.809,357.055 292.278,356.828 292.931 M161.799 292.236 C 161.757 292.674,162.960 295.520,163.120 295.360 C 163.200 295.280,162.942 294.483,162.545 293.590 C 162.149 292.697,161.813 292.088,161.799 292.236 M384.529 293.075 C 384.562 293.901,385.540 296.012,385.554 295.291 C 385.563 294.885,385.332 294.137,385.042 293.629 C 384.751 293.121,384.520 292.872,384.529 293.075 M143.347 294.409 C 143.119 295.061,142.998 295.660,143.077 295.739 C 143.156 295.818,143.406 295.349,143.634 294.696 C 143.861 294.043,143.983 293.444,143.904 293.365 C 143.825 293.286,143.574 293.756,143.347 294.409 M157.183 293.998 C 157.319 294.506,157.584 295.171,157.772 295.476 C 158.010 295.861,158.039 295.748,157.868 295.106 C 157.732 294.598,157.467 293.934,157.278 293.629 C 157.041 293.244,157.011 293.356,157.183 293.998 M148.148 295.147 C 147.921 295.800,147.799 296.399,147.878 296.478 C 147.957 296.557,148.208 296.087,148.435 295.434 C 148.663 294.782,148.784 294.183,148.705 294.104 C 148.626 294.025,148.376 294.494,148.148 295.147 M222.019 295.142 C 221.792 295.793,221.618 296.507,221.633 296.731 C 221.647 296.955,221.897 296.487,222.188 295.692 C 222.479 294.898,222.653 294.183,222.574 294.104 C 222.495 294.025,222.245 294.492,222.019 295.142 M281.903 294.737 C 282.000 295.099,282.555 295.307,283.500 295.338 C 284.888 295.383,284.895 295.378,283.660 295.216 C 282.951 295.122,282.231 294.852,282.062 294.614 C 281.852 294.320,281.801 294.359,281.903 294.737 M285.873 295.322 C 285.001 295.805,284.994 295.834,285.741 295.839 C 286.176 295.842,286.628 295.596,286.745 295.291 C 286.862 294.986,286.921 294.753,286.877 294.773 C 286.832 294.793,286.380 295.040,285.873 295.322 M38.114 295.382 C 40.287 295.447,43.943 295.447,46.240 295.382 C 48.536 295.317,46.759 295.264,42.290 295.264 C 37.821 295.263,35.942 295.316,38.114 295.382 M299.494 296.133 C 299.373 296.867,299.427 297.212,299.632 297.007 C 299.818 296.821,299.908 296.276,299.833 295.795 C 299.716 295.056,299.664 295.108,299.494 296.133 M304.495 302.308 C 304.495 306.371,304.549 308.084,304.615 306.114 C 304.681 304.144,304.681 300.820,304.616 298.727 C 304.550 296.634,304.495 298.246,304.495 302.308 M337.423 295.845 C 337.559 296.353,337.824 297.018,338.012 297.322 C 338.250 297.707,338.279 297.595,338.108 296.953 C 337.972 296.445,337.707 295.780,337.518 295.476 C 337.281 295.090,337.252 295.203,337.423 295.845 M366.620 296.044 C 366.493 296.374,366.404 296.921,366.421 297.260 C 366.439 297.599,366.600 297.386,366.779 296.787 C 367.127 295.621,367.004 295.044,366.620 296.044 M355.290 296.819 C 355.086 297.355,354.988 297.863,355.072 297.946 C 355.155 298.030,355.401 297.592,355.617 296.972 C 356.097 295.594,355.807 295.459,355.290 296.819 M21.079 297.907 C 21.093 298.906,21.241 300.055,21.408 300.462 C 21.586 300.895,21.631 300.209,21.517 298.800 C 21.281 295.896,21.043 295.410,21.079 297.907 M233.880 305.188 L 233.795 314.346 236.288 314.237 L 238.781 314.127 238.791 305.633 L 238.802 297.138 238.692 305.540 L 238.583 313.943 236.380 313.943 L 234.177 313.943 234.072 304.986 L 233.966 296.030 233.880 305.188 M163.821 297.415 C 163.959 297.872,164.224 298.408,164.410 298.607 C 164.596 298.805,164.561 298.431,164.332 297.776 C 163.864 296.434,163.432 296.129,163.821 297.415 M350.180 297.733 C 349.952 298.385,349.830 298.984,349.909 299.063 C 349.988 299.142,350.239 298.673,350.467 298.020 C 350.694 297.367,350.816 296.768,350.737 296.689 C 350.658 296.610,350.407 297.080,350.180 297.733 M295.291 297.913 L 293.075 298.409 295.087 298.213 C 296.193 298.105,297.357 297.865,297.672 297.680 C 298.389 297.261,298.061 297.293,295.291 297.913 M361.288 300.831 C 361.278 302.659,361.395 304.471,361.546 304.856 C 361.697 305.242,361.759 303.995,361.684 302.086 C 361.498 297.384,361.308 296.782,361.288 300.831 M373.592 298.061 L 366.574 298.270 373.407 298.345 C 377.330 298.387,380.476 298.266,380.794 298.061 C 381.099 297.864,381.182 297.736,380.979 297.777 C 380.776 297.818,377.452 297.946,373.592 298.061 M15.919 299.015 C 15.939 299.608,16.097 300.508,16.269 301.016 C 16.481 301.638,16.514 301.338,16.370 300.092 C 16.130 298.015,15.863 297.377,15.919 299.015 M141.500 299.210 C 140.963 300.752,141.219 301.008,141.828 299.538 C 142.086 298.916,142.211 298.320,142.105 298.215 C 142.000 298.109,141.727 298.557,141.500 299.210 M120.560 300.646 L 120.591 303.047 127.608 303.059 L 134.626 303.071 127.718 302.959 L 120.810 302.847 120.670 300.546 L 120.529 298.246 120.560 300.646 M286.334 299.550 C 285.055 300.064,285.350 300.290,286.704 299.834 C 287.364 299.611,287.973 299.370,288.058 299.299 C 288.358 299.045,287.152 299.221,286.334 299.550 M39.612 299.809 L 45.060 299.927 45.060 303.030 C 45.060 306.083,45.041 306.149,43.860 307.113 C 43.199 307.652,42.994 307.929,43.402 307.728 C 45.159 306.864,45.467 306.089,45.353 302.816 L 45.245 299.723 39.705 299.707 L 34.164 299.691 39.612 299.809 M57.359 301.385 C 57.359 302.502,57.428 302.959,57.513 302.401 C 57.598 301.842,57.598 300.928,57.513 300.369 C 57.428 299.811,57.359 300.268,57.359 301.385 M353.873 300.687 C 353.645 301.340,353.524 301.939,353.603 302.018 C 353.682 302.097,353.933 301.627,354.160 300.975 C 354.388 300.322,354.509 299.723,354.430 299.644 C 354.351 299.565,354.101 300.035,353.873 300.687 M386.015 300.548 L 385.965 301.742 376.270 301.847 L 366.574 301.952 376.281 302.038 C 386.739 302.130,386.600 302.156,386.229 300.212 C 386.104 299.555,386.054 299.634,386.015 300.548 M339.270 300.646 C 339.406 301.154,339.671 301.819,339.859 302.124 C 340.097 302.509,340.126 302.396,339.954 301.754 C 339.819 301.247,339.553 300.582,339.365 300.277 C 339.127 299.892,339.098 300.005,339.270 300.646 M165.298 301.108 C 165.436 301.565,165.701 302.101,165.887 302.300 C 166.073 302.498,166.038 302.125,165.810 301.469 C 165.342 300.127,164.910 299.822,165.298 301.108 M283.079 301.847 L 281.994 303.047 283.195 301.962 C 283.855 301.366,284.395 300.825,284.395 300.762 C 284.395 300.477,284.090 300.728,283.079 301.847 M348.702 301.795 C 348.475 302.448,348.353 303.047,348.432 303.126 C 348.511 303.205,348.762 302.735,348.989 302.083 C 349.217 301.430,349.339 300.831,349.260 300.752 C 349.181 300.673,348.930 301.143,348.702 301.795 M297.322 301.402 C 296.622 301.649,296.772 301.680,297.939 301.529 C 299.285 301.355,299.501 301.428,299.651 302.102 C 299.803 302.793,299.816 302.787,299.772 302.037 C 299.717 301.102,298.827 300.871,297.322 301.402 M140.043 303.213 C 139.827 303.833,139.729 304.340,139.825 304.340 C 140.075 304.340,140.771 302.421,140.589 302.238 C 140.505 302.155,140.260 302.593,140.043 303.213 M366.055 302.493 C 366.016 303.203,366.768 305.931,366.953 305.747 C 367.029 305.670,366.866 304.782,366.589 303.773 C 366.313 302.764,366.072 302.188,366.055 302.493 M289.751 302.756 C 289.344 302.854,288.860 303.078,288.674 303.255 C 288.391 303.523,290.323 303.146,291.597 302.685 C 292.138 302.489,290.617 302.548,289.751 302.756 M145.135 303.633 C 144.909 304.056,144.805 304.484,144.904 304.584 C 145.004 304.683,145.196 304.414,145.333 303.984 C 145.576 303.218,145.722 303.206,153.273 303.310 C 157.503 303.369,160.887 303.292,160.793 303.139 C 160.319 302.375,145.559 302.841,145.135 303.633 M80.560 304.033 C 80.536 304.371,80.421 304.953,80.305 305.325 C 80.103 305.967,80.114 305.968,80.514 305.344 C 80.746 304.982,80.861 304.400,80.769 304.051 C 80.619 303.479,80.599 303.478,80.560 304.033 M286.959 304.547 C 285.674 305.915,285.784 308.138,287.201 309.456 L 288.252 310.434 287.385 309.437 C 286.169 308.039,286.143 305.809,287.329 304.547 C 287.818 304.027,288.134 303.601,288.033 303.601 C 287.931 303.601,287.448 304.027,286.959 304.547 M85.423 305.671 C 85.196 306.665,85.068 307.537,85.140 307.608 C 85.345 307.814,86.116 304.700,85.969 304.259 C 85.896 304.041,85.651 304.677,85.423 305.671 M166.601 304.155 C 166.601 304.358,166.838 304.940,167.128 305.448 C 167.419 305.956,167.656 306.205,167.656 306.002 C 167.656 305.799,167.419 305.217,167.128 304.709 C 166.838 304.201,166.601 303.952,166.601 304.155 M281.295 304.555 C 280.888 305.615,281.095 308.937,281.638 310.065 C 282.042 310.903,282.105 310.948,281.898 310.249 C 281.748 309.741,281.625 308.121,281.625 306.648 C 281.625 303.724,281.622 303.704,281.295 304.555 M352.026 305.489 C 351.799 306.142,351.677 306.740,351.756 306.819 C 351.835 306.898,352.086 306.429,352.314 305.776 C 352.541 305.123,352.663 304.525,352.584 304.446 C 352.505 304.367,352.254 304.836,352.026 305.489 M63.158 305.677 C 63.158 305.871,63.669 306.605,64.293 307.309 L 65.427 308.587 64.400 307.110 C 63.835 306.297,63.324 305.563,63.265 305.479 C 63.206 305.394,63.158 305.483,63.158 305.677 M381.933 305.582 C 382.018 305.657,383.001 305.817,384.118 305.939 C 385.445 306.083,385.893 306.046,385.411 305.830 C 384.712 305.517,381.606 305.296,381.933 305.582 M138.545 306.966 C 138.318 307.619,138.196 308.218,138.275 308.297 C 138.354 308.376,138.605 307.906,138.832 307.254 C 139.060 306.601,139.182 306.002,139.103 305.923 C 139.024 305.844,138.773 306.314,138.545 306.966 M161.985 306.556 C 162.120 307.064,162.386 307.729,162.574 308.033 C 162.812 308.418,162.841 308.306,162.669 307.664 C 162.533 307.156,162.268 306.491,162.080 306.187 C 161.842 305.801,161.813 305.914,161.985 306.556 M346.906 307.018 C 346.509 308.103,346.519 308.149,347.010 307.501 C 347.480 306.881,347.757 305.817,347.449 305.817 C 347.392 305.817,347.148 306.357,346.906 307.018 M58.204 306.925 C 58.498 308.112,60.075 310.866,60.669 311.230 C 60.921 311.384,60.830 311.102,60.468 310.603 C 60.106 310.104,59.397 308.864,58.892 307.849 C 58.388 306.833,58.078 306.417,58.204 306.925 M143.716 307.336 C 143.488 307.988,143.367 308.587,143.446 308.666 C 143.525 308.745,143.776 308.276,144.003 307.623 C 144.231 306.970,144.352 306.371,144.273 306.292 C 144.194 306.213,143.944 306.683,143.716 307.336 M298.800 306.481 C 298.800 306.711,298.266 307.529,297.613 308.297 C 296.549 309.551,296.533 309.600,297.462 308.772 C 298.631 307.730,299.335 306.599,299.014 306.278 C 298.896 306.160,298.800 306.252,298.800 306.481 M385.288 307.645 C 385.072 308.265,384.974 308.772,385.070 308.772 C 385.319 308.772,386.016 306.853,385.833 306.670 C 385.750 306.587,385.504 307.025,385.288 307.645 M78.388 308.044 C 77.724 308.648,77.319 309.141,77.487 309.141 C 77.656 309.141,78.271 308.643,78.855 308.033 C 80.213 306.616,79.950 306.622,78.388 308.044 M367.788 307.483 C 367.997 307.892,368.557 308.556,369.033 308.958 C 369.868 309.664,369.866 309.651,368.981 308.585 C 367.510 306.813,367.386 306.699,367.788 307.483 M362.327 307.436 C 362.327 307.832,363.426 309.880,363.639 309.880 C 363.740 309.880,363.549 309.340,363.213 308.680 C 362.527 307.332,362.327 307.050,362.327 307.436 M342.225 308.403 C 342.360 308.910,342.626 309.575,342.814 309.880 C 343.052 310.265,343.081 310.152,342.909 309.511 C 342.773 309.003,342.508 308.338,342.320 308.033 C 342.082 307.648,342.053 307.761,342.225 308.403 M26.962 308.214 C 26.962 308.467,29.224 309.588,29.393 309.419 C 29.473 309.339,28.959 308.997,28.250 308.659 C 27.542 308.322,26.962 308.121,26.962 308.214 M350.549 309.552 C 350.321 310.204,350.200 310.803,350.279 310.882 C 350.358 310.961,350.609 310.492,350.836 309.839 C 351.064 309.186,351.185 308.588,351.106 308.509 C 351.027 308.430,350.776 308.899,350.549 309.552 M82.187 311.126 C 80.011 313.356,80.270 313.392,82.671 311.192 C 83.664 310.282,84.940 308.627,84.501 308.818 C 84.443 308.843,83.402 309.882,82.187 311.126 M33.149 310.147 C 33.809 310.229,34.889 310.229,35.549 310.147 C 36.210 310.065,35.669 309.998,34.349 309.998 C 33.029 309.998,32.488 310.065,33.149 310.147 M47.594 310.640 C 46.768 311.359,46.765 311.378,47.533 311.007 C 47.978 310.791,48.445 310.449,48.570 310.247 C 48.933 309.660,48.535 309.820,47.594 310.640 M70.822 310.147 C 71.482 310.229,72.562 310.229,73.223 310.147 C 73.883 310.065,73.343 309.998,72.022 309.998 C 70.702 309.998,70.162 310.065,70.822 310.147 M264.543 310.135 C 264.898 310.227,265.480 310.227,265.836 310.135 C 266.191 310.042,265.900 309.966,265.189 309.966 C 264.478 309.966,264.187 310.042,264.543 310.135 M293.813 310.444 C 293.001 310.712,292.669 310.937,293.075 310.943 C 293.481 310.949,294.312 310.726,294.922 310.447 C 296.317 309.808,295.748 309.807,293.813 310.444 M318.837 310.135 C 319.192 310.227,319.774 310.227,320.129 310.135 C 320.485 310.042,320.194 309.966,319.483 309.966 C 318.772 309.966,318.481 310.042,318.837 310.135 M371.117 310.318 C 371.421 310.625,372.532 310.803,374.146 310.803 C 375.760 310.803,376.870 310.625,377.175 310.318 C 377.571 309.918,377.473 309.902,376.615 310.226 C 376.043 310.442,374.932 310.619,374.146 310.619 C 373.360 310.619,372.249 310.442,371.677 310.226 C 370.819 309.902,370.721 309.918,371.117 310.318 M267.256 312.242 C 267.394 313.220,267.303 313.781,266.971 313.991 C 266.600 314.226,266.638 314.302,267.128 314.306 C 267.839 314.313,267.935 313.315,267.377 311.727 C 267.126 311.014,267.098 311.132,267.256 312.242 M141.842 312.610 L 141.412 313.911 138.758 314.038 L 136.103 314.165 138.800 314.239 L 141.497 314.312 142.053 312.979 C 142.360 312.247,142.534 311.571,142.441 311.477 C 142.347 311.384,142.078 311.894,141.842 312.610 M299.934 311.613 C 300.017 312.571,300.595 313.385,300.620 312.580 C 300.635 312.134,300.480 311.668,300.277 311.542 C 300.074 311.416,299.919 311.448,299.934 311.613 M343.514 311.837 C 343.325 314.198,348.633 315.486,349.446 313.278 C 349.646 312.736,349.627 312.510,349.395 312.653 C 349.194 312.777,349.030 313.118,349.030 313.411 C 349.030 314.668,344.807 314.092,344.135 312.742 C 343.806 312.082,343.527 311.675,343.514 311.837 M170.120 312.958 L 170.363 314.004 167.545 313.881 C 165.994 313.814,164.726 313.883,164.727 314.035 C 164.727 314.187,166.057 314.312,167.682 314.312 C 170.787 314.312,171.267 313.967,170.251 312.465 C 169.975 312.057,169.940 312.187,170.120 312.958 M321.699 313.358 C 321.699 313.646,321.491 313.965,321.237 314.067 C 320.961 314.179,321.036 314.266,321.422 314.283 C 321.832 314.301,322.068 314.042,322.068 313.573 C 322.068 313.167,321.985 312.835,321.884 312.835 C 321.782 312.835,321.699 313.070,321.699 313.358 M27.516 313.771 C 28.126 314.050,28.957 314.275,29.363 314.271 C 29.769 314.266,29.354 314.027,28.440 313.739 C 26.389 313.093,26.059 313.104,27.516 313.771 M77.932 313.790 C 76.722 314.285,76.710 314.305,77.747 314.105 C 78.356 313.987,79.013 313.736,79.206 313.547 C 79.648 313.115,79.521 313.139,77.932 313.790 M260.181 313.738 C 260.576 314.054,261.157 314.299,261.474 314.283 C 261.971 314.258,261.974 314.226,261.496 314.048 C 261.191 313.935,260.609 313.690,260.203 313.503 C 259.476 313.169,259.476 313.173,260.181 313.738 M284.927 313.738 C 285.322 314.054,285.904 314.299,286.220 314.283 C 286.718 314.258,286.720 314.226,286.242 314.048 C 285.937 313.935,285.355 313.690,284.949 313.503 C 284.222 313.169,284.222 313.173,284.927 313.738 M295.106 313.790 C 293.896 314.285,293.885 314.305,294.922 314.105 C 295.531 313.987,296.187 313.736,296.380 313.547 C 296.823 313.115,296.696 313.139,295.106 313.790 M314.475 313.738 C 314.869 314.054,315.451 314.299,315.768 314.283 C 316.265 314.258,316.268 314.226,315.789 314.048 C 315.485 313.935,314.903 313.690,314.497 313.503 C 313.770 313.169,313.770 313.173,314.475 313.738 M368.236 313.683 C 369.231 314.251,371.191 314.806,371.191 314.521 C 371.191 314.425,370.651 314.191,369.991 314.000 C 369.331 313.810,368.458 313.542,368.052 313.405 C 367.594 313.252,367.664 313.357,368.236 313.683 M379.132 313.771 C 378.523 314.050,378.273 314.280,378.578 314.282 C 378.883 314.284,379.548 314.048,380.055 313.758 C 381.223 313.091,380.599 313.100,379.132 313.771 M40.074 313.943 C 39.608 314.143,39.540 314.260,39.889 314.260 C 40.194 314.260,40.776 314.117,41.182 313.943 C 41.648 313.743,41.716 313.625,41.367 313.625 C 41.062 313.625,40.480 313.768,40.074 313.943 M65.189 313.943 C 65.596 314.117,66.177 314.260,66.482 314.260 C 66.831 314.260,66.763 314.143,66.297 313.943 C 65.891 313.768,65.309 313.625,65.005 313.625 C 64.655 313.625,64.724 313.743,65.189 313.943 M271.099 314.032 C 271.099 314.186,272.221 314.289,273.592 314.262 C 276.175 314.210,275.888 314.055,272.853 313.863 C 271.888 313.803,271.099 313.879,271.099 314.032 M300.978 314.054 C 301.141 314.217,302.339 314.298,303.639 314.235 L 306.002 314.119 303.341 313.939 C 301.877 313.839,300.814 313.891,300.978 314.054 M263.257 314.580 C 263.921 314.662,264.918 314.660,265.473 314.576 C 266.028 314.492,265.485 314.424,264.266 314.427 C 263.047 314.429,262.593 314.498,263.257 314.580 M317.550 314.580 C 318.214 314.662,319.212 314.660,319.767 314.576 C 320.322 314.492,319.778 314.424,318.560 314.427 C 317.341 314.429,316.887 314.498,317.550 314.580 " stroke="none" fill="#1ba2e6" fill-rule="evenodd"></path></g></svg>